<svg width="53" height="53" viewBox="0 0 53 53" fill="none" xmlns="http://www.w3.org/2000/svg">
<path d="M19.0469 5.3H33.9531C34.4086 5.3 34.7812 5.6975 34.7812 6.18333V10.6H18.2188V6.18333C18.2188 5.6975 18.5914 5.3 19.0469 5.3ZM13.25 6.18333V10.6H6.625C2.9709 10.6 0 13.769 0 17.6667V28.2667H19.875H33.125H53V17.6667C53 13.769 50.0291 10.6 46.375 10.6H39.75V6.18333C39.75 2.77146 37.1518 0 33.9531 0H19.0469C15.8482 0 13.25 2.77146 13.25 6.18333ZM53 31.8H33.125V35.3333C33.125 37.2877 31.6447 38.8667 29.8125 38.8667H23.1875C21.3553 38.8667 19.875 37.2877 19.875 35.3333V31.8H0V45.9333C0 49.831 2.9709 53 6.625 53H46.375C50.0291 53 53 49.831 53 45.9333V31.8Z" fill="#00061C"/>
</svg>
