<svg width="70" height="53" viewBox="0 0 70 53" fill="none" xmlns="http://www.w3.org/2000/svg">
<path d="M35.0008 0C34.1149 0 33.2399 0.165592 32.4087 0.484949L1.72977 12.4668C0.690729 12.8807 0.00168349 13.9453 0.00168349 15.1399C0.00168349 16.3345 0.690729 17.399 1.72977 17.813L8.06243 20.2851C6.26872 23.3367 5.25156 26.9443 5.25156 30.7411V34.0648C5.25156 37.4239 4.07034 40.8895 2.81255 43.6218C2.10163 45.1595 1.29228 46.6734 0.351675 48.0691C0.00168349 48.5778 -0.0967516 49.2401 0.100119 49.8434C0.296989 50.4466 0.756353 50.8961 1.32509 51.0498L8.32492 52.9423C8.78428 53.0724 9.27646 52.9778 9.68114 52.7057C10.0858 52.4337 10.3702 51.9842 10.4577 51.4756C11.3983 46.4132 10.928 41.8713 10.228 38.6185C9.87801 36.939 9.40771 35.2239 8.75147 33.6508V30.7411C8.75147 27.169 9.86707 23.798 11.803 21.1012C13.2139 19.2679 15.0404 17.7894 17.1841 16.8786L34.3555 9.58071C35.2524 9.20221 36.2696 9.67534 36.6195 10.6452C36.9695 11.6151 36.5321 12.7151 35.6352 13.0936L18.4637 20.3915C17.1075 20.9711 15.9154 21.8582 14.9419 22.9464L32.3978 29.7593C33.229 30.0787 34.104 30.2443 34.9899 30.2443C35.8758 30.2443 36.7508 30.0787 37.582 29.7593L68.2719 17.813C69.311 17.4109 70 16.3345 70 15.1399C70 13.9453 69.311 12.8807 68.2719 12.4668L37.593 0.484949C36.7617 0.165592 35.8868 0 35.0008 0ZM14.0013 44.4734C14.0013 48.6487 23.4074 52.9896 35.0008 52.9896C46.5943 52.9896 56.0003 48.6487 56.0003 44.4734L54.3269 27.2755L38.7742 33.3551C37.5602 33.8282 36.2805 34.0648 35.0008 34.0648C33.7212 34.0648 32.4306 33.8282 31.2275 33.3551L15.6747 27.2755L14.0013 44.4734Z" fill="#00061C"/>
</svg>
