<svg width="45" height="53" viewBox="0 0 45 53" fill="none" xmlns="http://www.w3.org/2000/svg">
<path d="M9.64286 0C4.3192 0 0 4.45117 0 9.9375V43.0625C0 48.5488 4.3192 53 9.64286 53H38.5714H41.7857C43.5636 53 45 51.5197 45 49.6875C45 47.8553 43.5636 46.375 41.7857 46.375V39.75C43.5636 39.75 45 38.2697 45 36.4375V3.3125C45 1.48027 43.5636 0 41.7857 0H38.5714H9.64286ZM9.64286 39.75H35.3571V46.375H9.64286C7.86495 46.375 6.42857 44.8947 6.42857 43.0625C6.42857 41.2303 7.86495 39.75 9.64286 39.75ZM12.8571 14.9062C12.8571 13.9953 13.5804 13.25 14.4643 13.25H33.75C34.6339 13.25 35.3571 13.9953 35.3571 14.9062C35.3571 15.8172 34.6339 16.5625 33.75 16.5625H14.4643C13.5804 16.5625 12.8571 15.8172 12.8571 14.9062ZM14.4643 19.875H33.75C34.6339 19.875 35.3571 20.6203 35.3571 21.5312C35.3571 22.4422 34.6339 23.1875 33.75 23.1875H14.4643C13.5804 23.1875 12.8571 22.4422 12.8571 21.5312C12.8571 20.6203 13.5804 19.875 14.4643 19.875Z" fill="#00061C"/>
</svg>
